<svg xmlns="http://www.w3.org/2000/svg" aria-hidden="true" style="position:absolute;width:0;height:0;overflow:hidden">
  <defs>
    <symbol id="icon-background" viewBox="0 0 48 32">
      <path fill="#316099" d="M32 16c0 8.837-7.163 16-16 16S0 24.837 0 16 7.163 0 16 0s16 7.163 16 16z" style="fill:var(--color1, #316099)"/>
      <path fill="#fff" d="M48 16c0 8.837-7.163 16-16 16s-16-7.163-16-16S23.163 0 32 0s16 7.163 16 16z" style="fill:var(--color2, #fff)"/>
      <path fill="none" stroke="#316099" stroke-width="2" d="M47 16c0 8.284-6.716 15-15 15s-15-6.716-15-15c0-8.284 6.716-15 15-15s15 6.716 15 15z" style="stroke:var(--color1, #316099)"/>
      <path fill="#316099" d="m29.77 24 1.079-3.315h5.249L37.177 24h3.296L35.458 9.454h-3.96L26.474 24h3.296zm1.86-5.718 1.792-5.503h.112l1.792 5.503H31.63z" style="fill:var(--color1, #316099)"/>
    </symbol>
    <symbol id="icon-home" viewBox="0 0 32 32">
      <path d="M32 18.451 16 6.031 0 18.451v-5.064L16 .967l16 12.42zM28 18v12h-8v-8h-8v8H4V18l12-9z"/>
    </symbol>
    <symbol id="icon-burger-menu" viewBox="0 0 48 32">
      <path fill="#356ead" d="M0 32h48v-5.333H0V32zm0-13.334h48v-5.333H0v5.333zM0 0v5.333h48V0H0z" style="fill:var(--color3, #356ead)"/>
    </symbol>
    <symbol id="icon-arrow" viewBox="0 0 32 32">
      <path fill="#5a98d0" style="fill: var(--color1, #5a98d0)" d="M16 5.333l-1.88 1.88 7.44 7.453h-16.227v2.667h16.227l-7.44 7.453 1.88 1.88 10.667-10.667-10.667-10.667z"></path>
    </symbol>
    <symbol id="icon-checked-true" viewBox="0 0 32 32">
      <path fill="#1f3f68" style="fill: var(--color1, #1f3f68)" d="M6.857 0h18.286c3.787 0 6.857 3.070 6.857 6.857v18.286c0 3.787-3.070 6.857-6.857 6.857h-18.286c-3.787 0-6.857-3.070-6.857-6.857v-18.286c0-3.787 3.070-6.857 6.857-6.857z"></path>
      <path fill="#fff" style="fill: var(--color2, #fff)" d="M26.93 7.329c-0.637-0.629-1.67-0.629-2.307 0l-9.49 9.371-4.328-4.274c-0.637-0.629-1.67-0.629-2.307 0l-2.307 2.278c-0.637 0.629-0.637 1.649 0 2.278l7.497 7.403c0.022 0.022 0.045 0.043 0.068 0.064l0.225 0.222c0.637 0.629 1.67 0.629 2.307 0l12.948-12.786c0.637-0.629 0.637-1.649 0-2.278l-2.307-2.278z"></path>
    </symbol>
    <symbol id="icon-checked-false" viewBox="0 0 32 32">
      <path fill="#deecf7" style="fill: var(--color3, #deecf7)" d="M6.857 0h18.286c3.787 0 6.857 3.070 6.857 6.857v18.286c0 3.787-3.070 6.857-6.857 6.857h-18.286c-3.787 0-6.857-3.070-6.857-6.857v-18.286c0-3.787 3.070-6.857 6.857-6.857z"></path>
    </symbol>
    <symbol id="icon-logo-footer" viewBox="0 0 48 32">
      <path fill="#98c3e8" style="fill: var(--color1, #98c3e8)" d="M32 16c0 8.837-7.163 16-16 16s-16-7.163-16-16c0-8.837 7.163-16 16-16s16 7.163 16 16z"></path>
      <path fill="#fff" style="fill: var(--color2, #fff)" d="M48 16c0 8.837-7.163 16-16 16s-16-7.163-16-16c0-8.837 7.163-16 16-16s16 7.163 16 16z"></path>
      <path fill="none" stroke="#316099" style="stroke: var(--color3, #316099)" stroke-linejoin="miter" stroke-linecap="butt" stroke-miterlimit="4" stroke-width="2" d="M47 16c0 8.284-6.716 15-15 15s-15-6.716-15-15c0-8.284 6.716-15 15-15s15 6.716 15 15z"></path>
      <path fill="#316099" style="fill: var(--color3, #316099)" d="M28.77 25l1.079-3.315h5.249l1.079 3.315h3.296l-5.015-14.546h-3.96l-5.024 14.546h3.296zM30.63 19.282l1.792-5.503h0.112l1.792 5.503h-3.696z"></path>
    </symbol>
  </defs>
</svg>
